<?xml version="1.0" standalone="no"?>
<!DOCTYPE svg PUBLIC "-//W3C//DTD SVG 20010904//EN"
 "http://www.w3.org/TR/2001/REC-SVG-20010904/DTD/svg10.dtd">
<svg version="1.0" xmlns="http://www.w3.org/2000/svg"
 width="256.000000pt" height="256.000000pt" viewBox="0 0 256.000000 256.000000"
 preserveAspectRatio="xMidYMid meet">
<metadata>
Created by potrace 1.11, written by Peter Selinger 2001-2013
</metadata>
<g transform="translate(0.000000,256.000000) scale(0.100000,-0.100000)"
fill="#000000" stroke="none">
<path d="M373 2546 c-138 -35 -259 -130 -318 -250 -68 -139 -71 -264 -10 -416
21 -51 35 -100 32 -113 -2 -12 -16 -62 -31 -112 -39 -131 -46 -258 -46 -877
l0 -548 127 6 c71 2 143 7 161 9 l32 4 0 -126 0 -126 138 7 c158 7 238 24 321
65 l58 30 93 -47 92 -47 258 0 258 0 92 47 93 47 58 -30 c83 -41 163 -58 322
-65 l137 -7 0 126 0 126 33 -4 c17 -2 89 -7 160 -9 l127 -6 0 548 c0 615 -7
746 -45 877 -33 112 -33 146 -2 215 88 197 47 415 -104 554 -138 128 -337 169
-504 104 l-60 -23 -565 0 -565 0 -65 24 c-79 28 -202 36 -277 17z m180 -176
c36 -11 76 -29 89 -39 l23 -19 -21 -29 c-34 -46 -60 -54 -144 -48 -65 5 -80 3
-108 -15 -40 -24 -72 -89 -72 -145 0 -22 11 -63 24 -90 26 -57 23 -72 -22
-124 l-29 -35 -36 50 c-45 62 -80 153 -79 207 0 50 34 139 68 184 29 38 97 80
169 105 63 22 60 22 138 -2z m1664 -26 c29 -14 68 -43 87 -65 43 -51 80 -148
79 -210 -1 -76 -75 -219 -113 -219 -16 0 -80 61 -80 77 0 3 12 30 26 60 23 45
26 62 21 109 -11 109 -52 139 -185 139 -93 0 -94 0 -123 33 -17 19 -28 39 -26
45 5 15 73 49 126 62 55 14 117 4 188 -31z m-1282 -144 c22 -11 108 -78 189
-150 82 -71 152 -130 157 -130 4 0 62 50 130 111 208 186 258 210 340 169 69
-35 266 -240 327 -339 61 -99 108 -210 123 -283 16 -88 13 -352 -6 -443 -31
-150 -74 -229 -244 -450 -111 -145 -131 -167 -200 -225 -48 -40 -61 -58 -81
-111 -43 -121 -84 -152 -223 -171 -96 -13 -340 -6 -410 12 -69 18 -109 60
-136 143 -23 69 -41 91 -121 150 -56 41 -285 343 -339 447 -80 154 -106 309
-91 537 10 142 25 198 89 320 57 109 124 195 236 301 138 133 180 151 260 112z"/>
<path d="M685 1656 c-32 -32 -45 -85 -44 -181 0 -101 15 -143 58 -172 59 -40
135 -22 166 37 23 44 30 145 15 215 -17 83 -59 125 -124 125 -36 0 -52 -6 -71
-24z"/>
<path d="M1725 1647 c-24 -24 -36 -48 -45 -92 -15 -71 -8 -171 15 -216 20 -38
76 -63 123 -55 77 12 107 81 100 223 -6 100 -20 138 -59 159 -49 25 -97 18
-134 -19z"/>
<path d="M1020 961 c-23 -4 -34 -11 -32 -21 13 -55 256 -300 298 -300 19 0
197 173 250 243 32 43 42 63 34 71 -12 13 -492 19 -550 7z"/>
<path d="M1234 499 c-17 -16 -59 -44 -94 -62 -35 -18 -65 -37 -67 -43 -2 -6
22 -23 54 -39 51 -26 69 -29 148 -30 96 0 148 13 183 46 32 29 27 47 -17 59
-21 5 -65 30 -97 55 -31 25 -62 45 -68 45 -6 0 -25 -14 -42 -31z"/>
</g>
</svg>
